<?xml version="1.0" encoding="UTF-8"?><svg id="Layer_2" xmlns="http://www.w3.org/2000/svg" viewBox="0 0 1641.55 529.56"><defs><style>.cls-1{fill:#005393;}</style></defs><g id="icon-essentials-plugin"><path class="cls-1" d="M1349.08,40.81c2.61,2.49,3.92,6.91,3.92,13.28s-1.35,11.21-4.05,13.73c-2.7,2.53-7.71,3.79-15.02,3.79s-12.39-1.22-14.96-3.66c-2.57-2.44-3.85-6.84-3.85-13.21s1.33-11.23,3.98-13.8c2.66-2.57,7.68-3.86,15.09-3.86s12.28,1.24,14.89,3.73Zm-592.96,245.14c1.96,5.51,2.97,11.7,3.03,18.57,.08,9.48-1.33,17.89-4.23,25.23-2.9,7.33-7.15,13.53-12.77,18.58-5.61,5.05-12.52,8.91-20.72,11.59-8.2,2.68-17.87,4.07-29.01,4.16l-14.09,.12,.45,53.9c0,.87-.27,1.66-.83,2.36-.56,.7-1.49,1.27-2.79,1.72-1.3,.45-3.04,.81-5.21,1.09-2.17,.28-4.96,.43-8.35,.46-3.31,.03-6.07-.08-8.29-.32-2.22-.24-3.99-.57-5.29-1-1.31-.42-2.23-.98-2.76-1.67-.53-.69-.79-1.47-.8-2.34l-.43-51.52c10.5,.88,25.55-2.61,25.55-2.61,0,0-.67-.14-1.84-.39-49.87-4.94-85.19-56.09-121.99-38.32-.78,.38-1.53,.75-2.27,1.13,6.94,12.7,2.48,28.67-10.13,35.9l-27.38,15.71,.28,.49c1.63,2.84,.65,6.47-2.19,8.1-2.84,1.63-6.47,.65-8.1-2.19l-9.37-16.32-30.02,17.23c-2.92,1.68-6.64,.67-8.32-2.25h0c-1.68-2.92-.67-6.64,2.25-8.32l30.02-17.23-9.49-16.54-30.02,17.23c-2.92,1.68-6.64,.67-8.32-2.25h0c-1.68-2.92-.67-6.64,2.25-8.32l30.02-17.23-9.37-16.32c-1.63-2.84-.65-6.47,2.19-8.1,2.84-1.63,6.47-.65,8.1,2.19l.28,.49,27.38-15.71c12.77-7.33,29.07-2.92,36.4,9.85l.48,.84c6.86-2.48,13.41-4.62,18.36-5.76,33.84-7.81,66.94,15.91,94.91,30.05l-.52-61.75c-.03-4.09,1-7.17,3.12-9.23,2.11-2.06,4.91-3.11,8.39-3.14l39.81-.33c4-.03,7.81,.09,11.42,.36,3.61,.28,7.95,.89,13,1.85,5.05,.96,10.18,2.77,15.38,5.42,5.2,2.65,9.64,6.03,13.33,10.13,3.69,4.1,6.51,8.91,8.47,14.42Zm-32.84,21.35c-.05-5.92-1.13-10.78-3.25-14.59-2.12-3.81-4.71-6.62-7.77-8.42-3.06-1.8-6.27-2.93-9.62-3.38-3.35-.45-6.81-.66-10.38-.63l-14.62,.12,.48,57.29,15.4-.13c5.48-.05,10.06-.82,13.75-2.33,3.68-1.51,6.69-3.6,9.02-6.28,2.33-2.67,4.08-5.86,5.27-9.57,1.19-3.71,1.76-7.73,1.73-12.09Zm83.97-65.08c-1.26-.48-2.94-.85-5.03-1.11s-4.75-.39-7.97-.39-5.88,.13-7.97,.39c-2.09,.26-3.77,.63-5.03,1.11-1.26,.48-2.16,1.07-2.68,1.77-.52,.7-.78,1.48-.78,2.35v172.01c0,.87,.26,1.63,.78,2.29s1.41,1.2,2.68,1.63c1.26,.44,2.94,.76,5.03,.98,2.09,.22,4.74,.33,7.97,.33s5.88-.11,7.97-.33c2.09-.22,3.77-.54,5.03-.98,1.26-.44,2.16-.98,2.68-1.63s.78-1.42,.78-2.29V246.34c0-.87-.26-1.66-.78-2.35-.52-.7-1.42-1.29-2.68-1.77Zm137.35,55.53c-1.22-.44-2.87-.76-4.96-.98-2.09-.22-4.75-.33-7.97-.33s-5.88,.11-7.97,.33c-2.09,.22-3.77,.55-5.03,.98-1.26,.44-2.13,.98-2.61,1.63-.48,.65-.72,1.42-.72,2.29v77.57c-4.79,5.84-9.3,10.29-13.52,13.34-4.22,3.05-8.42,4.58-12.6,4.58-3.31,0-6.2-.63-8.69-1.9-2.48-1.26-4.53-3.05-6.14-5.36-1.61-2.31-2.81-5.08-3.59-8.31-.78-3.23-1.18-7.89-1.18-14v-65.93c0-.87-.26-1.63-.78-2.29-.52-.65-1.42-1.2-2.68-1.63-1.26-.44-2.94-.76-5.03-.98-2.09-.22-4.75-.33-7.97-.33s-5.77,.11-7.9,.33c-2.13,.22-3.83,.55-5.09,.98-1.26,.44-2.13,.98-2.61,1.63-.48,.65-.72,1.42-.72,2.29v71.42c0,8.9,.72,16.33,2.16,22.3,1.44,5.97,3.83,11.23,7.18,15.76,3.35,4.54,7.75,8.11,13.19,10.73,5.44,2.62,12.17,3.92,20.18,3.92,7.14,0,14.04-1.75,20.7-5.23,6.66-3.49,13.21-8.72,19.66-15.7v13.47c0,.87,.22,1.63,.65,2.29,.43,.65,1.17,1.2,2.22,1.63,1.04,.44,2.46,.76,4.25,.98,1.78,.22,4.11,.33,6.99,.33,2.7,0,4.94-.11,6.73-.33,1.78-.22,3.22-.54,4.31-.98,1.09-.44,1.85-.98,2.29-1.63,.43-.65,.65-1.42,.65-2.29v-116.68c0-.87-.26-1.63-.78-2.29-.52-.65-1.39-1.2-2.61-1.63Zm134.09,2.35c.91,1.92,1.37,5.15,1.37,9.68,0,4.19-.48,7.28-1.44,9.29-.96,2.01-2.13,3.01-3.53,3.01h-13.71c1.92,2.09,3.29,4.47,4.12,7.13,.83,2.66,1.24,5.43,1.24,8.31,0,6.8-1.13,12.84-3.4,18.12-2.27,5.28-5.51,9.72-9.73,13.34-4.22,3.62-9.32,6.37-15.28,8.24-5.97,1.88-12.6,2.81-19.92,2.81-3.75,0-7.31-.46-10.71-1.37-3.4-.92-6.01-1.98-7.84-3.21-1.04,1.13-1.98,2.49-2.81,4.06-.83,1.57-1.24,3.31-1.24,5.23,0,2.53,1.11,4.6,3.33,6.21,2.22,1.61,5.33,2.51,9.34,2.68l28.34,1.05c6.62,.26,12.52,1.2,17.7,2.81,5.18,1.62,9.54,3.88,13.06,6.8,3.53,2.92,6.22,6.43,8.1,10.53,1.87,4.1,2.81,8.76,2.81,14,0,5.75-1.26,11.18-3.79,16.29-2.53,5.1-6.31,9.53-11.36,13.28-5.05,3.75-11.39,6.71-19,8.9-7.62,2.18-16.52,3.27-26.71,3.27s-18.4-.78-25.41-2.35c-7.01-1.57-12.76-3.75-17.24-6.54-4.49-2.79-7.75-6.13-9.8-10.01-2.05-3.88-3.07-8.13-3.07-12.75,0-2.88,.37-5.62,1.11-8.24,.74-2.62,1.83-5.12,3.27-7.52s3.2-4.69,5.29-6.87c2.09-2.18,4.48-4.27,7.18-6.28-3.75-2-6.64-4.73-8.69-8.17-2.05-3.44-3.07-7.21-3.07-11.32,0-5.14,1.17-9.83,3.53-14.06,2.35-4.23,5.4-8.04,9.14-11.45-3.05-3.05-5.49-6.71-7.31-10.99-1.83-4.27-2.74-9.59-2.74-15.96,0-6.8,1.2-12.88,3.59-18.25,2.39-5.36,5.72-9.9,9.99-13.6,4.27-3.71,9.36-6.54,15.28-8.5,5.92-1.96,12.45-2.94,19.59-2.94,3.66,0,7.16,.22,10.51,.65,3.35,.44,6.47,1.05,9.34,1.83h36.96c1.48,0,2.68,.96,3.59,2.88Zm-84.45,130.55c-.26,1.31-.39,2.66-.39,4.05,0,4.36,2.2,7.67,6.6,9.94,4.4,2.27,10.6,3.4,18.61,3.4,4.96,0,9.14-.5,12.54-1.5,3.4-1,6.14-2.33,8.23-3.99,2.09-1.66,3.57-3.51,4.44-5.56,.87-2.05,1.31-4.21,1.31-6.47,0-3.92-1.57-6.93-4.7-9.03-3.13-2.09-7.45-3.23-12.93-3.4l-23.38-.65c-2.27,1.66-4.07,3.25-5.42,4.77-1.35,1.53-2.44,2.99-3.27,4.38-.83,1.39-1.37,2.75-1.63,4.06Zm43.63-93.27c0-6.28-1.74-11.16-5.22-14.65-3.48-3.49-8.4-5.23-14.76-5.23-3.22,0-6.05,.55-8.49,1.64-2.44,1.09-4.46,2.57-6.07,4.45-1.61,1.88-2.81,4.05-3.59,6.54-.78,2.49-1.18,5.08-1.18,7.78,0,5.93,1.74,10.62,5.22,14.06,3.48,3.45,8.32,5.17,14.5,5.17,3.31,0,6.18-.52,8.62-1.57,2.44-1.05,4.46-2.49,6.07-4.32,1.61-1.83,2.83-3.94,3.66-6.34,.83-2.4,1.24-4.91,1.24-7.52Zm88.46-39.44c-1.26-.48-2.94-.85-5.03-1.11-2.09-.26-4.75-.39-7.97-.39s-5.88,.13-7.97,.39c-2.09,.26-3.77,.63-5.03,1.11-1.26,.48-2.16,1.05-2.68,1.7-.52,.65-.78,1.42-.78,2.29v116.42c0,.87,.26,1.63,.78,2.29s1.42,1.2,2.68,1.63c1.26,.44,2.94,.76,5.03,.98,2.09,.22,4.75,.33,7.97,.33s5.88-.11,7.97-.33c2.09-.22,3.76-.54,5.03-.98,1.26-.44,2.16-.98,2.68-1.63s.78-1.42,.78-2.29v-116.42c0-.87-.26-1.63-.78-2.29-.52-.65-1.42-1.22-2.68-1.7Zm-12.87-52.78c-7.4,0-12.43,1.29-15.09,3.86-2.66,2.57-3.98,7.17-3.98,13.8s1.28,10.77,3.85,13.21c2.57,2.44,7.55,3.66,14.96,3.66s12.32-1.26,15.02-3.79c2.7-2.53,4.05-7.11,4.05-13.73s-1.31-10.79-3.92-13.28-7.58-3.73-14.89-3.73Zm145.93,63.64c-3.35-4.49-7.75-8.04-13.19-10.66-5.44-2.62-12.13-3.92-20.05-3.92-7.23,0-14.17,1.75-20.83,5.23-6.66,3.49-13.21,8.72-19.66,15.7v-13.47c0-.87-.22-1.63-.65-2.29-.44-.65-1.16-1.2-2.16-1.63-1-.44-2.42-.76-4.25-.98-1.83-.22-4.14-.33-6.92-.33s-4.94,.11-6.73,.33c-1.79,.22-3.25,.55-4.38,.98-1.13,.44-1.92,.98-2.35,1.63-.44,.65-.65,1.42-.65,2.29v116.68c0,.87,.26,1.63,.78,2.29s1.42,1.2,2.68,1.63c1.26,.44,2.94,.76,5.03,.98,2.09,.22,4.75,.33,7.97,.33s5.88-.11,7.97-.33c2.09-.22,3.76-.54,5.03-.98,1.26-.44,2.16-.98,2.68-1.63s.78-1.42,.78-2.29v-77.57c4.62-5.84,9.06-10.29,13.32-13.34,4.27-3.05,8.49-4.58,12.67-4.58,3.31,0,6.21,.63,8.69,1.9,2.48,1.27,4.51,3.05,6.07,5.36,1.57,2.31,2.76,5.08,3.59,8.31,.83,3.23,1.24,7.67,1.24,13.34v66.58c0,.87,.26,1.63,.78,2.29s1.39,1.2,2.61,1.63c1.22,.44,2.89,.76,5.03,.98,2.13,.22,4.81,.33,8.03,.33s5.77-.11,7.9-.33c2.13-.22,3.81-.54,5.03-.98,1.22-.44,2.09-.98,2.61-1.63s.78-1.42,.78-2.29v-72.08c0-8.46-.74-15.7-2.22-21.71-1.48-6.02-3.9-11.27-7.25-15.76Zm-611.21-96.64c1.96,1.7,4.38,2.55,7.25,2.55h84.9c.78,0,1.5-.24,2.16-.72,.65-.48,1.2-1.24,1.63-2.29,.43-1.05,.76-2.42,.98-4.12,.22-1.7,.33-3.81,.33-6.34s-.11-4.64-.33-6.34c-.22-1.7-.54-3.07-.98-4.12-.44-1.05-.98-1.81-1.63-2.29-.65-.48-1.37-.72-2.16-.72h-60.87v-47.74h51.07c.78,0,1.5-.22,2.16-.65,.65-.44,1.2-1.15,1.63-2.16,.43-1,.76-2.33,.98-3.99,.22-1.66,.33-3.75,.33-6.28s-.11-4.51-.33-6.21c-.22-1.7-.54-3.05-.98-4.06-.44-1-.98-1.74-1.63-2.22-.65-.48-1.37-.72-2.16-.72h-51.07v-41.33h60.35c.78,0,1.48-.24,2.09-.72,.61-.48,1.13-1.24,1.57-2.29,.43-1.05,.76-2.42,.98-4.12,.22-1.7,.33-3.77,.33-6.21,0-2.62-.11-4.77-.33-6.48-.22-1.7-.54-3.09-.98-4.19-.44-1.09-.96-1.85-1.57-2.29-.61-.44-1.31-.65-2.09-.65h-84.38c-2.87,0-5.29,.85-7.25,2.55-1.96,1.7-2.94,4.47-2.94,8.31V203.86c0,3.84,.98,6.61,2.94,8.31Zm196.67-17.33c2.48-5.06,3.72-10.9,3.72-17.53,0-5.32-.83-9.92-2.48-13.8-1.65-3.88-3.83-7.21-6.53-10.01-2.7-2.79-5.77-5.14-9.21-7.06-3.44-1.92-6.92-3.6-10.45-5.04-3.53-1.44-7.01-2.77-10.45-3.99-3.44-1.22-6.51-2.53-9.21-3.92-2.7-1.39-4.88-3.01-6.53-4.84-1.66-1.83-2.48-4.1-2.48-6.8,0-1.74,.35-3.38,1.04-4.91,.7-1.52,1.74-2.85,3.13-3.99,1.39-1.13,3.18-2.01,5.36-2.62,2.18-.61,4.75-.92,7.71-.92,4.18,0,7.9,.46,11.17,1.37,3.27,.92,6.14,1.9,8.62,2.94s4.55,2.03,6.2,2.94c1.65,.92,2.87,1.37,3.66,1.37,.7,0,1.31-.15,1.83-.46,.52-.3,.93-.89,1.24-1.77,.3-.87,.52-2.05,.65-3.53,.13-1.48,.2-3.4,.2-5.76,0-2-.07-3.68-.2-5.04-.13-1.35-.28-2.49-.46-3.4-.18-.92-.44-1.7-.78-2.35-.35-.65-.94-1.31-1.76-1.96-.83-.65-2.2-1.44-4.11-2.35-1.92-.92-4.27-1.77-7.05-2.55-2.79-.78-5.9-1.44-9.34-1.96-3.44-.52-6.99-.78-10.65-.78-7.31,0-13.91,.92-19.79,2.75-5.88,1.83-10.86,4.4-14.96,7.72-4.09,3.31-7.23,7.3-9.4,11.97-2.18,4.67-3.27,9.79-3.27,15.37s.8,10.2,2.42,14.13c1.61,3.92,3.74,7.28,6.4,10.07,2.66,2.79,5.66,5.15,9.01,7.06,3.35,1.92,6.79,3.62,10.32,5.1,3.53,1.48,6.97,2.83,10.32,4.05,3.35,1.22,6.36,2.53,9.01,3.92,2.65,1.4,4.79,3.03,6.4,4.91,1.61,1.88,2.42,4.12,2.42,6.74,0,2.27-.44,4.27-1.31,6.02-.87,1.75-2.16,3.18-3.85,4.32-1.7,1.13-3.7,2.01-6.01,2.62-2.31,.61-4.94,.92-7.9,.92-4.7,0-8.9-.57-12.6-1.7-3.7-1.13-6.95-2.35-9.73-3.66-2.79-1.31-5.12-2.51-6.99-3.6-1.87-1.09-3.29-1.64-4.24-1.64-.78,0-1.44,.15-1.96,.46-.52,.31-.96,.92-1.31,1.83-.35,.92-.61,2.14-.78,3.66-.18,1.53-.26,3.55-.26,6.08,0,3.84,.26,6.74,.78,8.7,.52,1.96,1.26,3.4,2.22,4.32,.96,.92,2.48,1.9,4.57,2.94s4.7,2.07,7.84,3.07c3.13,1,6.68,1.83,10.65,2.49,3.96,.65,8.12,.98,12.47,.98,7.23,0,13.93-.85,20.12-2.55,6.18-1.7,11.54-4.25,16.07-7.65,4.53-3.4,8.03-7.63,10.52-12.69Zm94.2-41.33c-2.7-2.79-5.77-5.14-9.21-7.06-3.44-1.92-6.92-3.6-10.45-5.04-3.53-1.44-7.01-2.77-10.45-3.99-3.44-1.22-6.51-2.53-9.21-3.92-2.7-1.39-4.88-3.01-6.53-4.84-1.66-1.83-2.48-4.1-2.48-6.8,0-1.74,.35-3.38,1.04-4.91,.7-1.52,1.74-2.85,3.13-3.99,1.39-1.13,3.18-2.01,5.36-2.62,2.18-.61,4.75-.92,7.71-.92,4.18,0,7.9,.46,11.17,1.37,3.27,.92,6.14,1.9,8.62,2.94s4.55,2.03,6.2,2.94c1.65,.92,2.87,1.37,3.66,1.37,.7,0,1.31-.15,1.83-.46,.52-.3,.93-.89,1.24-1.77,.3-.87,.52-2.05,.65-3.53,.13-1.48,.2-3.4,.2-5.76,0-2-.07-3.68-.2-5.04-.13-1.35-.28-2.49-.46-3.4-.18-.92-.44-1.7-.78-2.35-.35-.65-.94-1.31-1.76-1.96-.83-.65-2.2-1.44-4.11-2.35-1.92-.92-4.27-1.77-7.05-2.55-2.79-.78-5.9-1.44-9.34-1.96-3.44-.52-6.99-.78-10.65-.78-7.31,0-13.91,.92-19.79,2.75-5.88,1.83-10.86,4.4-14.96,7.72-4.09,3.31-7.23,7.3-9.4,11.97-2.18,4.67-3.27,9.79-3.27,15.37s.8,10.2,2.42,14.13c1.61,3.92,3.74,7.28,6.4,10.07,2.66,2.79,5.66,5.15,9.01,7.06,3.35,1.92,6.79,3.62,10.32,5.1,3.53,1.48,6.97,2.83,10.32,4.05,3.35,1.22,6.36,2.53,9.01,3.92,2.66,1.4,4.79,3.03,6.4,4.91,1.61,1.88,2.42,4.12,2.42,6.74,0,2.27-.44,4.27-1.31,6.02-.87,1.75-2.16,3.18-3.85,4.32-1.7,1.13-3.7,2.01-6.01,2.62-2.31,.61-4.94,.92-7.9,.92-4.7,0-8.9-.57-12.6-1.7-3.7-1.13-6.95-2.35-9.73-3.66-2.79-1.31-5.12-2.51-6.99-3.6-1.87-1.09-3.29-1.64-4.25-1.64-.78,0-1.44,.15-1.96,.46-.52,.31-.96,.92-1.31,1.83-.35,.92-.61,2.14-.78,3.66-.17,1.53-.26,3.55-.26,6.08,0,3.84,.26,6.74,.78,8.7,.52,1.96,1.26,3.4,2.22,4.32,.96,.92,2.48,1.9,4.57,2.94s4.7,2.07,7.84,3.07,6.68,1.83,10.65,2.49c3.96,.65,8.12,.98,12.47,.98,7.23,0,13.93-.85,20.12-2.55,6.18-1.7,11.54-4.25,16.07-7.65,4.53-3.4,8.03-7.63,10.52-12.69,2.48-5.06,3.72-10.9,3.72-17.53,0-5.32-.83-9.92-2.48-13.8-1.66-3.88-3.83-7.21-6.53-10.01Zm23.54,28.25c-2.57-8.11-3.85-17.61-3.85-28.52s1.35-19.73,4.05-28.06c2.7-8.33,6.62-15.39,11.76-21.19,5.14-5.8,11.38-10.22,18.74-13.28,7.36-3.05,15.65-4.58,24.88-4.58,9.75,0,18.09,1.44,25.01,4.32s12.6,6.87,17.05,11.97c4.44,5.1,7.71,11.14,9.8,18.12,2.09,6.98,3.13,14.56,3.13,22.76v5.23c0,4.01-.89,6.98-2.68,8.9-1.79,1.92-4.25,2.88-7.38,2.88h-70.93c0,4.97,.59,9.48,1.76,13.54,1.18,4.05,3.05,7.5,5.62,10.33,2.57,2.83,5.88,4.99,9.93,6.48,4.05,1.48,8.9,2.22,14.56,2.22s10.8-.41,15.15-1.24c4.35-.83,8.12-1.74,11.3-2.75,3.18-1,5.81-1.92,7.9-2.75,2.09-.83,3.79-1.24,5.09-1.24,.78,0,1.44,.15,1.96,.46,.52,.31,.96,.85,1.31,1.64,.35,.78,.59,1.9,.72,3.34s.2,3.25,.2,5.43c0,1.92-.04,3.55-.13,4.91-.09,1.35-.22,2.51-.39,3.47-.17,.96-.44,1.77-.78,2.42-.35,.65-.81,1.29-1.37,1.9-.57,.61-2.11,1.44-4.64,2.49-2.53,1.05-5.75,2.07-9.67,3.07-3.92,1-8.41,1.87-13.45,2.62-5.05,.74-10.45,1.11-16.2,1.11-10.36,0-19.44-1.31-27.23-3.92-7.79-2.62-14.3-6.58-19.53-11.9-5.22-5.32-9.12-12.03-11.69-20.14Zm29.58-42.64h49.11c.26-9.24-1.59-16.5-5.55-21.78-3.96-5.28-10.08-7.91-18.35-7.91-4.18,0-7.82,.79-10.91,2.35-3.09,1.57-5.66,3.69-7.71,6.34-2.05,2.66-3.61,5.8-4.7,9.42-1.09,3.62-1.72,7.48-1.89,11.58Zm174.47-17.07c1.57,2.31,2.76,5.08,3.59,8.31,.83,3.23,1.24,7.67,1.24,13.34v66.58c0,.87,.26,1.63,.78,2.29,.52,.65,1.39,1.2,2.61,1.63,1.22,.44,2.89,.76,5.03,.98,2.13,.22,4.81,.33,8.03,.33s5.77-.11,7.9-.33c2.13-.22,3.81-.54,5.03-.98,1.22-.44,2.09-.98,2.61-1.63,.52-.65,.78-1.42,.78-2.29v-72.07c0-8.46-.74-15.7-2.22-21.71-1.48-6.02-3.9-11.27-7.25-15.76-3.35-4.49-7.75-8.04-13.19-10.66-5.44-2.62-12.13-3.92-20.05-3.92-7.23,0-14.17,1.75-20.83,5.23-6.66,3.49-13.21,8.72-19.66,15.7v-13.47c0-.87-.22-1.63-.65-2.29-.44-.65-1.16-1.2-2.16-1.63-1-.44-2.42-.76-4.25-.98-1.83-.22-4.14-.33-6.92-.33s-4.94,.11-6.73,.33c-1.79,.22-3.25,.55-4.38,.98-1.13,.44-1.92,.98-2.35,1.63-.44,.65-.65,1.42-.65,2.29v116.68c0,.87,.26,1.63,.78,2.29,.52,.65,1.42,1.2,2.68,1.63,1.26,.44,2.94,.76,5.03,.98,2.09,.22,4.75,.33,7.97,.33s5.88-.11,7.97-.33c2.09-.22,3.76-.54,5.03-.98,1.26-.44,2.16-.98,2.68-1.63,.52-.65,.78-1.42,.78-2.29v-77.57c4.62-5.84,9.06-10.29,13.32-13.34,4.27-3.05,8.49-4.58,12.67-4.58,3.31,0,6.21,.63,8.69,1.9,2.48,1.27,4.51,3.05,6.07,5.36Zm173.94-32.9h-75.37v-26.03c0-.87-.26-1.66-.78-2.35-.52-.7-1.39-1.29-2.61-1.77-1.22-.48-2.9-.83-5.03-1.05-2.13-.22-4.81-.33-8.03-.33s-5.77,.11-7.9,.33c-2.13,.22-3.83,.57-5.09,1.05-1.26,.48-2.13,1.07-2.61,1.77-.48,.7-.72,1.48-.72,2.35v26.03h-13.85c-.87,0-1.63,.22-2.29,.65-.65,.44-1.2,1.16-1.63,2.16-.44,1-.76,2.38-.98,4.12-.22,1.75-.33,3.88-.33,6.41,0,4.8,.43,8.22,1.31,10.27,.87,2.05,2.13,3.07,3.79,3.07h13.98v59.78c0,7.15,.74,13.34,2.22,18.57,1.48,5.23,3.79,9.57,6.92,13.02,3.13,3.45,7.1,6,11.89,7.65,4.79,1.66,10.45,2.49,16.98,2.49,2.44,0,4.85-.13,7.25-.39,2.39-.26,4.62-.63,6.66-1.11,2.04-.48,3.85-1.05,5.42-1.7,1.57-.65,2.74-1.44,3.53-2.35,.78-.92,1.39-2.35,1.83-4.32,.44-1.96,.65-4.86,.65-8.7,0-2.44-.11-4.45-.33-6.02-.22-1.57-.46-2.81-.72-3.73-.26-.92-.63-1.52-1.11-1.83-.48-.3-.98-.46-1.5-.46-.61,0-1.29,.15-2.02,.46-.74,.31-1.66,.65-2.74,1.05-1.09,.39-2.33,.74-3.72,1.05-1.39,.31-2.96,.46-4.7,.46-5.14,0-8.71-1.59-10.71-4.77-2-3.18-3-7.96-3-14.32v-54.81h52.38v94.44c0,.87,.26,1.63,.78,2.29,.52,.65,1.39,1.2,2.61,1.63,1.22,.44,2.89,.76,5.03,.98,2.13,.22,4.81,.33,8.03,.33s5.77-.11,7.9-.33c2.13-.22,3.81-.54,5.03-.98,1.22-.44,2.09-.98,2.61-1.63,.52-.65,.78-1.42,.78-2.29V98.3c0-2.96-.72-5.23-2.16-6.8s-3.98-2.35-7.64-2.35Zm132.02,22.24c1.92,5.84,2.87,12.78,2.87,20.8v78.48c0,1.22-.44,2.18-1.31,2.88-.87,.7-2.24,1.2-4.11,1.5-1.87,.3-4.64,.46-8.29,.46-3.92,0-6.77-.15-8.56-.46-1.79-.31-3.05-.81-3.79-1.5-.74-.7-1.11-1.66-1.11-2.88v-9.29c-4.79,5.15-10.25,9.16-16.39,12.03-6.14,2.88-12.95,4.32-20.44,4.32-6.18,0-11.87-.81-17.05-2.42-5.18-1.61-9.67-4.01-13.45-7.19-3.79-3.18-6.73-7.13-8.82-11.84-2.09-4.71-3.14-10.2-3.14-16.48,0-6.8,1.33-12.71,3.98-17.72,2.66-5.01,6.62-9.16,11.89-12.43,5.27-3.27,11.82-5.69,19.66-7.26,7.84-1.57,16.94-2.35,27.3-2.35h11.36v-7.06c0-3.66-.37-6.87-1.11-9.61-.74-2.75-1.96-5.04-3.66-6.87-1.7-1.83-3.96-3.18-6.79-4.06-2.83-.87-6.33-1.31-10.51-1.31-5.49,0-10.38,.61-14.69,1.83-4.31,1.22-8.12,2.57-11.43,4.05-3.31,1.48-6.07,2.83-8.29,4.06-2.22,1.22-4.03,1.83-5.42,1.83-.96,0-1.81-.3-2.55-.92-.74-.61-1.35-1.48-1.83-2.62-.48-1.13-.85-2.53-1.11-4.19-.26-1.66-.39-3.49-.39-5.49,0-2.7,.22-4.84,.65-6.41,.43-1.57,1.26-2.99,2.48-4.25,1.22-1.26,3.35-2.66,6.4-4.19,3.05-1.52,6.62-2.94,10.71-4.25,4.09-1.31,8.56-2.38,13.39-3.2,4.83-.83,9.82-1.24,14.96-1.24,9.14,0,16.96,.9,23.45,2.68,6.49,1.79,11.82,4.54,16,8.24,4.18,3.71,7.23,8.48,9.14,14.32Zm-29.39,49.31h-12.54c-5.31,0-9.84,.39-13.58,1.18-3.75,.79-6.79,1.96-9.14,3.53-2.35,1.57-4.07,3.47-5.16,5.69-1.09,2.22-1.63,4.77-1.63,7.65,0,4.88,1.54,8.72,4.64,11.51,3.09,2.79,7.38,4.19,12.87,4.19,4.62,0,8.86-1.18,12.74-3.53,3.87-2.35,7.81-5.8,11.82-10.33v-19.88Zm87.28-126.56c-1.26-.48-2.94-.85-5.03-1.11s-4.75-.39-7.97-.39-5.88,.13-7.97,.39-3.77,.63-5.03,1.11c-1.26,.48-2.16,1.07-2.68,1.77-.52,.7-.78,1.48-.78,2.35V210.27c0,.87,.26,1.63,.78,2.29,.52,.65,1.42,1.2,2.68,1.63,1.26,.44,2.94,.76,5.03,.98,2.09,.22,4.75,.33,7.97,.33s5.88-.11,7.97-.33c2.09-.22,3.76-.54,5.03-.98,1.26-.44,2.16-.98,2.68-1.63,.52-.65,.78-1.42,.78-2.29V38.25c0-.87-.26-1.66-.78-2.35-.52-.7-1.42-1.29-2.68-1.77Zm108.57,129.37c-1.66-3.88-3.83-7.21-6.53-10.01-2.7-2.79-5.77-5.14-9.21-7.06-3.44-1.92-6.92-3.6-10.45-5.04-3.53-1.44-7.01-2.77-10.45-3.99-3.44-1.22-6.51-2.53-9.21-3.92-2.7-1.39-4.88-3.01-6.53-4.84-1.66-1.83-2.48-4.1-2.48-6.8,0-1.74,.35-3.38,1.04-4.91,.7-1.52,1.74-2.85,3.13-3.99,1.39-1.13,3.18-2.01,5.36-2.62,2.18-.61,4.75-.92,7.71-.92,4.18,0,7.9,.46,11.17,1.37,3.27,.92,6.14,1.9,8.62,2.94s4.55,2.03,6.2,2.94c1.65,.92,2.87,1.37,3.66,1.37,.7,0,1.31-.15,1.83-.46,.52-.3,.93-.89,1.24-1.77,.3-.87,.52-2.05,.65-3.53,.13-1.48,.2-3.4,.2-5.76,0-2-.07-3.68-.2-5.04-.13-1.35-.28-2.49-.46-3.4-.18-.92-.44-1.7-.78-2.35-.35-.65-.94-1.31-1.76-1.96-.83-.65-2.2-1.44-4.11-2.35-1.92-.92-4.27-1.77-7.05-2.55-2.79-.78-5.9-1.44-9.34-1.96-3.44-.52-6.99-.78-10.65-.78-7.31,0-13.91,.92-19.79,2.75-5.88,1.83-10.86,4.4-14.96,7.72-4.09,3.31-7.23,7.3-9.4,11.97-2.18,4.67-3.27,9.79-3.27,15.37s.8,10.2,2.42,14.13c1.61,3.92,3.74,7.28,6.4,10.07,2.66,2.79,5.66,5.15,9.01,7.06,3.35,1.92,6.79,3.62,10.32,5.1,3.53,1.48,6.97,2.83,10.32,4.05,3.35,1.22,6.36,2.53,9.01,3.92,2.66,1.4,4.79,3.03,6.4,4.91,1.61,1.88,2.42,4.12,2.42,6.74,0,2.27-.44,4.27-1.31,6.02-.87,1.75-2.16,3.18-3.85,4.32-1.7,1.13-3.7,2.01-6.01,2.62-2.31,.61-4.94,.92-7.9,.92-4.7,0-8.9-.57-12.6-1.7-3.7-1.13-6.95-2.35-9.73-3.66-2.79-1.31-5.12-2.51-6.99-3.6-1.87-1.09-3.29-1.64-4.25-1.64-.78,0-1.44,.15-1.96,.46-.52,.31-.96,.92-1.31,1.83-.35,.92-.61,2.14-.78,3.66-.17,1.53-.26,3.55-.26,6.08,0,3.84,.26,6.74,.78,8.7,.52,1.96,1.26,3.4,2.22,4.32,.96,.92,2.48,1.9,4.57,2.94s4.7,2.07,7.84,3.07,6.68,1.83,10.65,2.49c3.96,.65,8.12,.98,12.47,.98,7.23,0,13.93-.85,20.12-2.55,6.18-1.7,11.54-4.25,16.07-7.65,4.53-3.4,8.03-7.63,10.52-12.69,2.48-5.06,3.72-10.9,3.72-17.53,0-5.32-.83-9.92-2.48-13.8ZM79.46,247.99c-.42,.34-.83,.68-1.24,1.02l-.43-.17c-.83-1.59-1.63-3.2-2.41-4.82-.86-1.8-1.67-3.61-2.46-5.43-16.64-38.55-16.96-83-.61-126.56,15.95-42.5,43.01-72.71,63.56-84.62,2.85-1.45,5.71-2.85,8.6-4.19,22.21-9.06,60-13.26,101.26-3.4,46.28,11.05,83.58,37.06,106.09,73.67,1.04,1.69,2.06,3.4,3.04,5.13,.41,.72,.81,1.45,1.21,2.18l-.95,3.63c-3.97,1.07-8.03,2.22-12.18,3.47-41.77,12.54-89.44,32.78-137.86,58.53-48.42,25.75-91.86,53.95-125.61,81.57ZM444.57,96.46c1.29,2.6,1.87,5.52,1.75,8.74-.06,1.8-.35,3.7-.84,5.67l-.73,2.58c-2.96,9.22-10.03,20.11-20.58,32.11l-119.53,186.54,67.16-35.71,80.94,152.22-152.22,80.94-80.94-152.22,67.19-35.72-219.22-5.51c-22.01,3.08-38.77,1.95-48.15-3.91-2.73-1.71-4.77-4.22-6.27-6.34-1.95-2.76-5.71-12.54-6.35-15.7S-2,255.75,.46,228.14c2.42-27.14,9.19-53.57,20.14-78.55,11.05-25.23,26.05-48.27,44.58-68.49,12.13-13.24,25.61-25.07,40.28-35.38-15.47,17.22-29.41,40.07-38.5,64.29-8.61,22.94-12.82,46.13-12.51,68.9,.3,22.24,4.97,43.53,13.87,63.46,.81,1.81,1.64,3.61,2.52,5.4,.77,1.56,1.56,3.11,2.38,4.65,.09,.17,.2,.33,.32,.48-26.02,22.03-43.38,42.4-49.3,56.37-3.03,7.15-.15,13.56,4.42,14.74,4.02,1.04,11.52,2.89,24.34,2.11,14.4-.87,32.13-4.22,52.7-9.96,20.62-5.75,43.29-13.72,66.97-23.47l-97.98-38.96h0c.75,.29,1.62,.28,2.39-.13,1.39-.74,1.92-2.47,1.18-3.86-.1-.18-.19-.37-.28-.55l.24-.2,101.99,40.56c23.48-9.94,47.82-21.56,72.03-34.43,26.64-14.16,52.1-29.32,75.2-44.66l27.68-106.05c1.61-.43,3.2-.85,4.77-1.26h.03c.51-.14,1.02-.27,1.52-.39l-26.85,102.89c18.66-12.7,35.62-25.48,50.19-37.88,16.26-13.85,28.96-26.67,37.73-38.12,7.81-10.2,10.8-17.1,11.86-21.36,.76-3.09,2.33-9.01-9.75-11.9-12.08-2.9-35.51-.58-63.18,6.38l.43-1.63h0c.17-.67,.12-1.4-.23-2.06s-.7-1.31-1.06-1.96c-.96-1.74-1.95-3.46-2.96-5.16-11.74-19.64-27.32-36.28-46.43-49.55-18.71-12.99-40.28-22.46-64.12-28.16-21.37-5.1-43.89-6.76-64.23-5.18,9.76-2.71,19.68-4.84,29.74-6.34,27.12-4.06,54.61-3.61,81.71,1.34,26.83,4.9,52.53,14.06,76.38,27.23,24.26,13.4,46.17,30.39,64.46,51.11,5.36,6.08,9.46,14.04,9.46,14.04Zm-105.44,263.62l-42.85,22.78c-1.46,.78-2.46,1.86-2.99,3.25-.54,1.39-.29,3.06,.75,5.01l39.78,74.82c1.03,1.95,2.28,3.09,3.73,3.42,1.45,.33,2.91,.11,4.37-.66l43.12-22.93c.4-.21,.7-.53,.9-.95,.2-.42,.27-.95,.21-1.6s-.27-1.43-.61-2.35c-.35-.92-.86-2.02-1.55-3.31s-1.31-2.32-1.88-3.13c-.57-.8-1.11-1.41-1.61-1.83s-.98-.65-1.45-.72c-.46-.07-.89,0-1.29,.22l-30.91,16.44-12.87-24.21,25.94-13.79c.4-.21,.7-.52,.92-.91,.21-.4,.3-.91,.25-1.54-.05-.63-.24-1.39-.58-2.29-.34-.9-.84-1.99-1.53-3.27s-1.27-2.26-1.84-3.06-1.1-1.4-1.59-1.79c-.49-.39-.97-.62-1.43-.69-.46-.07-.89,0-1.29,.22l-25.94,13.79-11.15-20.96,30.65-16.29c.4-.21,.69-.52,.87-.93,.18-.41,.24-.94,.18-1.58s-.27-1.43-.61-2.35c-.35-.92-.85-2-1.51-3.24-.71-1.33-1.34-2.39-1.91-3.2-.57-.8-1.11-1.42-1.63-1.86-.52-.43-.99-.68-1.41-.74-.43-.06-.84,.02-1.24,.23Zm-143.92-64.55l99.68,39.64,28.25-108.24c-20.16,12.95-42.17,25.85-65.54,38.28-21.26,11.3-42.21,21.45-62.39,30.32Zm85.71,40.23l-93.1-37.02c-34.73,14.88-66.91,25.85-94.05,32.31l187.14,4.71Zm123.8-170.41c-19.38,17.96-44.76,37.45-74.48,56.97l-26.1,100,100.59-156.97Z"/></g></svg>