<?xml version="1.0" encoding="UTF-8"?>
<svg id="Layer_2" data-name="Layer 2" xmlns="http://www.w3.org/2000/svg" viewBox="0 0 793.08 927.5">
  <defs>
    <style>
      .cls-1 {
        fill: #005294;
      }
    </style>
  </defs>
  <g id="Layer_1-2" data-name="Layer 1">
    <path id="Essentials-2" class="cls-1" d="m139.17,434.26l-2.17,1.79-.75-.3c-1.45-2.79-2.86-5.61-4.22-8.44-1.5-3.15-2.92-6.32-4.3-9.52-29.16-67.52-29.72-145.39-1.08-221.7,27.94-74.41,75.34-127.41,111.34-148.23,4.99-2.55,10.02-5,15.07-7.34,38.91-15.88,105.11-23.22,177.38-6,81.09,19.4,146.41,64.96,185.84,129.1,1.82,3,3.61,5.95,5.32,9,.71,1.26,1.41,2.53,2.11,3.81l-1.66,6.36c-6.95,1.87-14.06,3.9-21.34,6.08-73.18,21.96-156.68,57.41-241.5,102.51s-160.9,94.51-220.04,142.88ZM778.75,168.82c2.3,4.77,3.36,10.04,3.07,15.32-.14,3.35-.63,6.69-1.46,9.94l-1.27,4.52c-5.19,16.15-17.57,35.23-36,56.25l-209.44,326.77,117.65-62.55,141.78,266.61-266.65,141.82-141.79-266.65,117.7-62.57-384-9.66c-38.56,5.39-67.91,3.42-84.35-6.84-4.79-3-8.35-7.39-11-11.11-3.42-4.85-10-22-11.13-27.51S-3.47,447.86.79,399.5C11.98,271.07,79.29,154.13,184.72,79.95c-27.1,30.16-51.51,70.2-67.43,112.62-15.08,40.19-22.46,80.8-21.92,120.7.4,38.33,8.68,76.17,24.31,111.17,1.41,3.17,2.88,6.32,4.4,9.46,1.35,2.73,2.73,5.45,4.17,8.15.15.3.34.58.56.84-45.58,38.59-76,74.28-86.36,98.75-5.31,12.52-.27,23.76,7.73,25.82,7,1.81,20.18,5.05,42.64,3.7,25.22-1.53,56.28-7.4,92.32-17.45s75.84-24,117.31-41.11l-171.63-68.25h0c2.57,1.01,5.47-.25,6.49-2.81.54-1.36.45-2.89-.24-4.19l-.5-1,.42-.35,178.66,71c41.14-17.32,83.78-37.67,126.19-60.22,46.69-24.81,91.27-51.35,131.69-78.23l48.52-185.77c2.82-.76,5.61-1.49,8.36-2.2h.06l2.67-.67-47,180.24c32.69-22.26,62.4-44.64,87.93-66.37,28.49-24.25,50.72-46.72,66.09-66.78,13.69-17.86,18.91-29.95,20.78-37.41,1.32-5.41,4.07-15.78-17.09-20.86s-62.19-1-110.67,11.18l.74-2.85h0c.33-1.21.18-2.5-.41-3.6-.61-1.15-1.23-2.3-1.86-3.44-1.67-3.05-3.41-6.06-5.19-9-20.58-34.43-48.31-64.02-81.33-86.79-32.77-22.76-70.56-39.36-112.32-49.33-36.82-8.75-74.77-11.81-112.52-9.07C430.84-14.7,548.94-.72,649.29,54.77c42.5,23.47,80.88,53.24,112.91,89.52,9.33,10.57,16.55,24.53,16.55,24.53Zm-184.69,461.79l-75.06,39.91c-2.4,1.18-4.27,3.21-5.25,5.7-.94,2.44-.5,5.36,1.31,8.77l69.69,131.07c1.82,3.41,4,5.4,6.54,6,2.61.57,5.33.16,7.65-1.17l75.53-40.21c.69-.36,1.25-.94,1.58-1.65.38-.88.51-1.86.37-2.81-.18-1.41-.54-2.8-1.07-4.12-.78-1.99-1.68-3.92-2.71-5.79-.98-1.9-2.08-3.73-3.29-5.48-.8-1.17-1.75-2.23-2.82-3.15-.72-.64-1.6-1.07-2.54-1.26-.77-.12-1.56,0-2.25.38l-54.14,28.78-22.55-42.41,45.48-24.16c.69-.36,1.25-.92,1.61-1.6.39-.85.53-1.8.39-2.73-.15-1.37-.49-2.72-1-4-.77-1.96-1.67-3.88-2.68-5.73-.96-1.85-2.04-3.65-3.22-5.37-.78-1.16-1.72-2.22-2.79-3.13-.71-.62-1.57-1.04-2.5-1.21-.77-.12-1.57.01-2.26.38l-45.45,24.19-19.53-36.72,53.69-28.54c.68-.35,1.21-.93,1.52-1.63.33-.88.44-1.84.31-2.77-.18-1.42-.54-2.8-1.07-4.13-.77-1.94-1.66-3.83-2.65-5.67-1-1.93-2.12-3.81-3.35-5.6-.81-1.2-1.77-2.29-2.85-3.25-.69-.66-1.54-1.11-2.47-1.3-.75-.09-1.51.05-2.17.41Zm-252.11-113.06l174.58,69.43,49.48-189.6c-35.28,22.67-73.83,45.3-114.78,67.06-37.25,19.8-73.95,37.57-109.28,53.11Zm150.14,70.46l-163.08-64.85c-60.83,26.07-117.21,45.29-164.74,56.61l327.82,8.24Zm216.87-298.51c-33.95,31.45-78.43,65.59-130.43,99.79l-45.76,175.18,176.19-274.97Z"/>
  </g>
</svg>